<mxfile host="65bd71144e">
    <diagram name="Side-1" id="2YhtcvCRtrOUDMHDCLSI">
        <mxGraphModel dx="330" dy="446" grid="1" gridSize="10" guides="1" tooltips="1" connect="1" arrows="1" fold="1" page="1" pageScale="1" pageWidth="827" pageHeight="1169" math="0" shadow="0">
            <root>
                <mxCell id="0"/>
                <mxCell id="1" parent="0"/>
                <mxCell id="wD4cl0w786RY4ceJdXbx-1" value="&amp;nbsp;4 User" style="swimlane;fontStyle=0;childLayout=stackLayout;horizontal=1;startSize=30;horizontalStack=0;resizeParent=1;resizeParentMax=0;resizeLast=0;collapsible=1;marginBottom=0;whiteSpace=wrap;html=1;" parent="1" vertex="1">
                    <mxGeometry x="230" y="90" width="140" height="240" as="geometry"/>
                </mxCell>
                <mxCell id="wD4cl0w786RY4ceJdXbx-3" value="&lt;b&gt;&lt;u&gt;userID (int)&amp;nbsp;&lt;/u&gt;&lt;/b&gt;" style="text;strokeColor=none;fillColor=none;align=left;verticalAlign=middle;spacingLeft=4;spacingRight=4;overflow=hidden;points=[[0,0.5],[1,0.5]];portConstraint=eastwest;rotatable=0;whiteSpace=wrap;html=1;" parent="wD4cl0w786RY4ceJdXbx-1" vertex="1">
                    <mxGeometry y="30" width="140" height="30" as="geometry"/>
                </mxCell>
                <mxCell id="wD4cl0w786RY4ceJdXbx-4" value="*roleID (int)" style="text;strokeColor=none;fillColor=none;align=left;verticalAlign=middle;spacingLeft=4;spacingRight=4;overflow=hidden;points=[[0,0.5],[1,0.5]];portConstraint=eastwest;rotatable=0;whiteSpace=wrap;html=1;" parent="wD4cl0w786RY4ceJdXbx-1" vertex="1">
                    <mxGeometry y="60" width="140" height="30" as="geometry"/>
                </mxCell>
                <mxCell id="wD4cl0w786RY4ceJdXbx-5" value="firstName (varchar 255)" style="text;strokeColor=none;fillColor=none;align=left;verticalAlign=middle;spacingLeft=4;spacingRight=4;overflow=hidden;points=[[0,0.5],[1,0.5]];portConstraint=eastwest;rotatable=0;whiteSpace=wrap;html=1;" parent="wD4cl0w786RY4ceJdXbx-1" vertex="1">
                    <mxGeometry y="90" width="140" height="30" as="geometry"/>
                </mxCell>
                <mxCell id="wD4cl0w786RY4ceJdXbx-6" value="lastName (varchar 255)" style="text;strokeColor=none;fillColor=none;align=left;verticalAlign=middle;spacingLeft=4;spacingRight=4;overflow=hidden;points=[[0,0.5],[1,0.5]];portConstraint=eastwest;rotatable=0;whiteSpace=wrap;html=1;" parent="wD4cl0w786RY4ceJdXbx-1" vertex="1">
                    <mxGeometry y="120" width="140" height="30" as="geometry"/>
                </mxCell>
                <mxCell id="wD4cl0w786RY4ceJdXbx-7" value="email (varchar 255)" style="text;strokeColor=none;fillColor=none;align=left;verticalAlign=middle;spacingLeft=4;spacingRight=4;overflow=hidden;points=[[0,0.5],[1,0.5]];portConstraint=eastwest;rotatable=0;whiteSpace=wrap;html=1;" parent="wD4cl0w786RY4ceJdXbx-1" vertex="1">
                    <mxGeometry y="150" width="140" height="30" as="geometry"/>
                </mxCell>
                <mxCell id="wD4cl0w786RY4ceJdXbx-8" value="password (varchar 255)" style="text;strokeColor=none;fillColor=none;align=left;verticalAlign=middle;spacingLeft=4;spacingRight=4;overflow=hidden;points=[[0,0.5],[1,0.5]];portConstraint=eastwest;rotatable=0;whiteSpace=wrap;html=1;" parent="wD4cl0w786RY4ceJdXbx-1" vertex="1">
                    <mxGeometry y="180" width="140" height="30" as="geometry"/>
                </mxCell>
                <mxCell id="wD4cl0w786RY4ceJdXbx-9" value="jobtitle (varchar 255)" style="text;strokeColor=none;fillColor=none;align=left;verticalAlign=middle;spacingLeft=4;spacingRight=4;overflow=hidden;points=[[0,0.5],[1,0.5]];portConstraint=eastwest;rotatable=0;whiteSpace=wrap;html=1;" parent="wD4cl0w786RY4ceJdXbx-1" vertex="1">
                    <mxGeometry y="210" width="140" height="30" as="geometry"/>
                </mxCell>
                <mxCell id="3A3omUd8nX7yIEy-ywaj-1" style="edgeStyle=orthogonalEdgeStyle;rounded=0;orthogonalLoop=1;jettySize=auto;html=1;entryX=0;entryY=0.5;entryDx=0;entryDy=0;endArrow=ERone;endFill=0;startArrow=ERone;startFill=0;" parent="1" source="wD4cl0w786RY4ceJdXbx-10" target="wD4cl0w786RY4ceJdXbx-4" edge="1">
                    <mxGeometry relative="1" as="geometry"/>
                </mxCell>
                <mxCell id="wD4cl0w786RY4ceJdXbx-10" value="1 role" style="swimlane;fontStyle=0;childLayout=stackLayout;horizontal=1;startSize=30;horizontalStack=0;resizeParent=1;resizeParentMax=0;resizeLast=0;collapsible=1;marginBottom=0;whiteSpace=wrap;html=1;fillColor=#d5e8d4;strokeColor=#82b366;" parent="1" vertex="1">
                    <mxGeometry x="50" y="120" width="140" height="90" as="geometry"/>
                </mxCell>
                <mxCell id="wD4cl0w786RY4ceJdXbx-11" value="&lt;u&gt;&lt;b&gt;roleID (int)&lt;/b&gt;&lt;/u&gt;" style="text;strokeColor=none;fillColor=none;align=left;verticalAlign=middle;spacingLeft=4;spacingRight=4;overflow=hidden;points=[[0,0.5],[1,0.5]];portConstraint=eastwest;rotatable=0;whiteSpace=wrap;html=1;" parent="wD4cl0w786RY4ceJdXbx-10" vertex="1">
                    <mxGeometry y="30" width="140" height="30" as="geometry"/>
                </mxCell>
                <mxCell id="wD4cl0w786RY4ceJdXbx-12" value="roletype (ENUM)" style="text;strokeColor=none;fillColor=none;align=left;verticalAlign=middle;spacingLeft=4;spacingRight=4;overflow=hidden;points=[[0,0.5],[1,0.5]];portConstraint=eastwest;rotatable=0;whiteSpace=wrap;html=1;" parent="wD4cl0w786RY4ceJdXbx-10" vertex="1">
                    <mxGeometry y="60" width="140" height="30" as="geometry"/>
                </mxCell>
                <mxCell id="wD4cl0w786RY4ceJdXbx-14" value="6 post" style="swimlane;fontStyle=0;childLayout=stackLayout;horizontal=1;startSize=30;horizontalStack=0;resizeParent=1;resizeParentMax=0;resizeLast=0;collapsible=1;marginBottom=0;whiteSpace=wrap;html=1;" parent="1" vertex="1">
                    <mxGeometry x="430" y="90" width="140" height="330" as="geometry"/>
                </mxCell>
                <mxCell id="wD4cl0w786RY4ceJdXbx-15" value="&lt;u&gt;&lt;b&gt;postID (int)&lt;/b&gt;&lt;/u&gt;" style="text;strokeColor=none;fillColor=none;align=left;verticalAlign=middle;spacingLeft=4;spacingRight=4;overflow=hidden;points=[[0,0.5],[1,0.5]];portConstraint=eastwest;rotatable=0;whiteSpace=wrap;html=1;" parent="wD4cl0w786RY4ceJdXbx-14" vertex="1">
                    <mxGeometry y="30" width="140" height="30" as="geometry"/>
                </mxCell>
                <mxCell id="wD4cl0w786RY4ceJdXbx-16" value="* userID (int)" style="text;strokeColor=none;fillColor=none;align=left;verticalAlign=middle;spacingLeft=4;spacingRight=4;overflow=hidden;points=[[0,0.5],[1,0.5]];portConstraint=eastwest;rotatable=0;whiteSpace=wrap;html=1;" parent="wD4cl0w786RY4ceJdXbx-14" vertex="1">
                    <mxGeometry y="60" width="140" height="30" as="geometry"/>
                </mxCell>
                <mxCell id="wD4cl0w786RY4ceJdXbx-17" value="* categoryID (int)" style="text;strokeColor=#82b366;fillColor=#d5e8d4;align=left;verticalAlign=middle;spacingLeft=4;spacingRight=4;overflow=hidden;points=[[0,0.5],[1,0.5]];portConstraint=eastwest;rotatable=0;whiteSpace=wrap;html=1;" parent="wD4cl0w786RY4ceJdXbx-14" vertex="1">
                    <mxGeometry y="90" width="140" height="30" as="geometry"/>
                </mxCell>
                <mxCell id="wD4cl0w786RY4ceJdXbx-18" value="* like Amount (int)" style="text;strokeColor=none;fillColor=none;align=left;verticalAlign=middle;spacingLeft=4;spacingRight=4;overflow=hidden;points=[[0,0.5],[1,0.5]];portConstraint=eastwest;rotatable=0;whiteSpace=wrap;html=1;" parent="wD4cl0w786RY4ceJdXbx-14" vertex="1">
                    <mxGeometry y="120" width="140" height="30" as="geometry"/>
                </mxCell>
                <mxCell id="wD4cl0w786RY4ceJdXbx-20" value="* statusID (int)" style="text;strokeColor=#82b366;fillColor=#d5e8d4;align=left;verticalAlign=middle;spacingLeft=4;spacingRight=4;overflow=hidden;points=[[0,0.5],[1,0.5]];portConstraint=eastwest;rotatable=0;whiteSpace=wrap;html=1;" parent="wD4cl0w786RY4ceJdXbx-14" vertex="1">
                    <mxGeometry y="150" width="140" height="30" as="geometry"/>
                </mxCell>
                <mxCell id="wD4cl0w786RY4ceJdXbx-19" value="&lt;b&gt;&lt;u&gt;tag (varchar 20)&lt;/u&gt;&lt;/b&gt;" style="text;strokeColor=none;fillColor=none;align=left;verticalAlign=middle;spacingLeft=4;spacingRight=4;overflow=hidden;points=[[0,0.5],[1,0.5]];portConstraint=eastwest;rotatable=0;whiteSpace=wrap;html=1;" parent="wD4cl0w786RY4ceJdXbx-14" vertex="1">
                    <mxGeometry y="180" width="140" height="30" as="geometry"/>
                </mxCell>
                <mxCell id="wD4cl0w786RY4ceJdXbx-21" value="title (varchar 255)" style="text;strokeColor=none;fillColor=none;align=left;verticalAlign=middle;spacingLeft=4;spacingRight=4;overflow=hidden;points=[[0,0.5],[1,0.5]];portConstraint=eastwest;rotatable=0;whiteSpace=wrap;html=1;" parent="wD4cl0w786RY4ceJdXbx-14" vertex="1">
                    <mxGeometry y="210" width="140" height="30" as="geometry"/>
                </mxCell>
                <mxCell id="wD4cl0w786RY4ceJdXbx-22" value="description (varchar 2000)" style="text;strokeColor=none;fillColor=none;align=left;verticalAlign=middle;spacingLeft=4;spacingRight=4;overflow=hidden;points=[[0,0.5],[1,0.5]];portConstraint=eastwest;rotatable=0;whiteSpace=wrap;html=1;" parent="wD4cl0w786RY4ceJdXbx-14" vertex="1">
                    <mxGeometry y="240" width="140" height="30" as="geometry"/>
                </mxCell>
                <mxCell id="wD4cl0w786RY4ceJdXbx-23" value="image (BLOB)" style="text;strokeColor=none;fillColor=none;align=left;verticalAlign=middle;spacingLeft=4;spacingRight=4;overflow=hidden;points=[[0,0.5],[1,0.5]];portConstraint=eastwest;rotatable=0;whiteSpace=wrap;html=1;" parent="wD4cl0w786RY4ceJdXbx-14" vertex="1">
                    <mxGeometry y="270" width="140" height="30" as="geometry"/>
                </mxCell>
                <mxCell id="hiYrSH7SHBzh72cXvtfJ-8" value="*flagID (int)" style="text;strokeColor=#b85450;fillColor=#f8cecc;align=left;verticalAlign=middle;spacingLeft=4;spacingRight=4;overflow=hidden;points=[[0,0.5],[1,0.5]];portConstraint=eastwest;rotatable=0;whiteSpace=wrap;html=1;" parent="wD4cl0w786RY4ceJdXbx-14" vertex="1">
                    <mxGeometry y="300" width="140" height="30" as="geometry"/>
                </mxCell>
                <mxCell id="wD4cl0w786RY4ceJdXbx-24" value="8 comment" style="swimlane;fontStyle=0;childLayout=stackLayout;horizontal=1;startSize=30;horizontalStack=0;resizeParent=1;resizeParentMax=0;resizeLast=0;collapsible=1;marginBottom=0;whiteSpace=wrap;html=1;" parent="1" vertex="1">
                    <mxGeometry x="660" y="20" width="140" height="150" as="geometry"/>
                </mxCell>
                <mxCell id="wD4cl0w786RY4ceJdXbx-25" value="&lt;b&gt;&lt;u&gt;commentID (int)&lt;/u&gt;&lt;/b&gt;" style="text;strokeColor=none;fillColor=none;align=left;verticalAlign=middle;spacingLeft=4;spacingRight=4;overflow=hidden;points=[[0,0.5],[1,0.5]];portConstraint=eastwest;rotatable=0;whiteSpace=wrap;html=1;" parent="wD4cl0w786RY4ceJdXbx-24" vertex="1">
                    <mxGeometry y="30" width="140" height="30" as="geometry"/>
                </mxCell>
                <mxCell id="wD4cl0w786RY4ceJdXbx-26" value="* userID (int)" style="text;strokeColor=none;fillColor=none;align=left;verticalAlign=middle;spacingLeft=4;spacingRight=4;overflow=hidden;points=[[0,0.5],[1,0.5]];portConstraint=eastwest;rotatable=0;whiteSpace=wrap;html=1;" parent="wD4cl0w786RY4ceJdXbx-24" vertex="1">
                    <mxGeometry y="60" width="140" height="30" as="geometry"/>
                </mxCell>
                <mxCell id="wD4cl0w786RY4ceJdXbx-27" value="* postID (int)" style="text;strokeColor=none;fillColor=none;align=left;verticalAlign=middle;spacingLeft=4;spacingRight=4;overflow=hidden;points=[[0,0.5],[1,0.5]];portConstraint=eastwest;rotatable=0;whiteSpace=wrap;html=1;" parent="wD4cl0w786RY4ceJdXbx-24" vertex="1">
                    <mxGeometry y="90" width="140" height="30" as="geometry"/>
                </mxCell>
                <mxCell id="wD4cl0w786RY4ceJdXbx-28" value="description (varchar 2000)" style="text;strokeColor=none;fillColor=none;align=left;verticalAlign=middle;spacingLeft=4;spacingRight=4;overflow=hidden;points=[[0,0.5],[1,0.5]];portConstraint=eastwest;rotatable=0;whiteSpace=wrap;html=1;" parent="wD4cl0w786RY4ceJdXbx-24" vertex="1">
                    <mxGeometry y="120" width="140" height="30" as="geometry"/>
                </mxCell>
                <mxCell id="3A3omUd8nX7yIEy-ywaj-4" style="edgeStyle=orthogonalEdgeStyle;rounded=0;orthogonalLoop=1;jettySize=auto;html=1;entryX=0;entryY=0.5;entryDx=0;entryDy=0;endArrow=ERone;endFill=0;startArrow=ERone;startFill=0;" parent="1" source="wD4cl0w786RY4ceJdXbx-29" target="wD4cl0w786RY4ceJdXbx-17" edge="1">
                    <mxGeometry relative="1" as="geometry">
                        <Array as="points">
                            <mxPoint x="380" y="405"/>
                            <mxPoint x="380" y="195"/>
                        </Array>
                    </mxGeometry>
                </mxCell>
                <mxCell id="wD4cl0w786RY4ceJdXbx-29" value="2 category" style="swimlane;fontStyle=0;childLayout=stackLayout;horizontal=1;startSize=30;horizontalStack=0;resizeParent=1;resizeParentMax=0;resizeLast=0;collapsible=1;marginBottom=0;whiteSpace=wrap;html=1;fillColor=#d5e8d4;strokeColor=#82b366;" parent="1" vertex="1">
                    <mxGeometry x="230" y="360" width="140" height="90" as="geometry"/>
                </mxCell>
                <mxCell id="wD4cl0w786RY4ceJdXbx-30" value="&lt;b&gt;&lt;u&gt;categoryID (int)&lt;/u&gt;&lt;/b&gt;" style="text;strokeColor=none;fillColor=none;align=left;verticalAlign=middle;spacingLeft=4;spacingRight=4;overflow=hidden;points=[[0,0.5],[1,0.5]];portConstraint=eastwest;rotatable=0;whiteSpace=wrap;html=1;" parent="wD4cl0w786RY4ceJdXbx-29" vertex="1">
                    <mxGeometry y="30" width="140" height="30" as="geometry"/>
                </mxCell>
                <mxCell id="wD4cl0w786RY4ceJdXbx-31" value="categoryType (ENUM)" style="text;strokeColor=none;fillColor=none;align=left;verticalAlign=middle;spacingLeft=4;spacingRight=4;overflow=hidden;points=[[0,0.5],[1,0.5]];portConstraint=eastwest;rotatable=0;whiteSpace=wrap;html=1;" parent="wD4cl0w786RY4ceJdXbx-29" vertex="1">
                    <mxGeometry y="60" width="140" height="30" as="geometry"/>
                </mxCell>
                <mxCell id="wD4cl0w786RY4ceJdXbx-34" value="7 notification" style="swimlane;fontStyle=0;childLayout=stackLayout;horizontal=1;startSize=30;horizontalStack=0;resizeParent=1;resizeParentMax=0;resizeLast=0;collapsible=1;marginBottom=0;whiteSpace=wrap;html=1;" parent="1" vertex="1">
                    <mxGeometry x="660" y="190" width="140" height="180" as="geometry"/>
                </mxCell>
                <mxCell id="wD4cl0w786RY4ceJdXbx-35" value="&lt;b&gt;&lt;u&gt;notificatioID (int)&lt;/u&gt;&lt;/b&gt;" style="text;strokeColor=none;fillColor=none;align=left;verticalAlign=middle;spacingLeft=4;spacingRight=4;overflow=hidden;points=[[0,0.5],[1,0.5]];portConstraint=eastwest;rotatable=0;whiteSpace=wrap;html=1;" parent="wD4cl0w786RY4ceJdXbx-34" vertex="1">
                    <mxGeometry y="30" width="140" height="30" as="geometry"/>
                </mxCell>
                <mxCell id="wD4cl0w786RY4ceJdXbx-39" value="* postID (int)" style="text;strokeColor=none;fillColor=none;align=left;verticalAlign=middle;spacingLeft=4;spacingRight=4;overflow=hidden;points=[[0,0.5],[1,0.5]];portConstraint=eastwest;rotatable=0;whiteSpace=wrap;html=1;" parent="wD4cl0w786RY4ceJdXbx-34" vertex="1">
                    <mxGeometry y="60" width="140" height="30" as="geometry"/>
                </mxCell>
                <mxCell id="wD4cl0w786RY4ceJdXbx-38" value="* userID (int)" style="text;strokeColor=none;fillColor=none;align=left;verticalAlign=middle;spacingLeft=4;spacingRight=4;overflow=hidden;points=[[0,0.5],[1,0.5]];portConstraint=eastwest;rotatable=0;whiteSpace=wrap;html=1;" parent="wD4cl0w786RY4ceJdXbx-34" vertex="1">
                    <mxGeometry y="90" width="140" height="30" as="geometry"/>
                </mxCell>
                <mxCell id="wD4cl0w786RY4ceJdXbx-37" value="notificationType (ENUM)" style="text;strokeColor=none;fillColor=none;align=left;verticalAlign=middle;spacingLeft=4;spacingRight=4;overflow=hidden;points=[[0,0.5],[1,0.5]];portConstraint=eastwest;rotatable=0;whiteSpace=wrap;html=1;" parent="wD4cl0w786RY4ceJdXbx-34" vertex="1">
                    <mxGeometry y="120" width="140" height="30" as="geometry"/>
                </mxCell>
                <mxCell id="wD4cl0w786RY4ceJdXbx-40" value="description (varchar 2000)" style="text;strokeColor=none;fillColor=none;align=left;verticalAlign=middle;spacingLeft=4;spacingRight=4;overflow=hidden;points=[[0,0.5],[1,0.5]];portConstraint=eastwest;rotatable=0;whiteSpace=wrap;html=1;" parent="wD4cl0w786RY4ceJdXbx-34" vertex="1">
                    <mxGeometry y="150" width="140" height="30" as="geometry"/>
                </mxCell>
                <mxCell id="wD4cl0w786RY4ceJdXbx-41" value="3 status" style="swimlane;fontStyle=0;childLayout=stackLayout;horizontal=1;startSize=30;horizontalStack=0;resizeParent=1;resizeParentMax=0;resizeLast=0;collapsible=1;marginBottom=0;whiteSpace=wrap;html=1;fillColor=#d5e8d4;strokeColor=#82b366;" parent="1" vertex="1">
                    <mxGeometry x="230" y="655" width="140" height="90" as="geometry"/>
                </mxCell>
                <mxCell id="wD4cl0w786RY4ceJdXbx-42" value="&lt;b&gt;&lt;u&gt;statusID (int)&lt;/u&gt;&lt;/b&gt;" style="text;strokeColor=none;fillColor=none;align=left;verticalAlign=middle;spacingLeft=4;spacingRight=4;overflow=hidden;points=[[0,0.5],[1,0.5]];portConstraint=eastwest;rotatable=0;whiteSpace=wrap;html=1;" parent="wD4cl0w786RY4ceJdXbx-41" vertex="1">
                    <mxGeometry y="30" width="140" height="30" as="geometry"/>
                </mxCell>
                <mxCell id="wD4cl0w786RY4ceJdXbx-43" value="statusType(ENUM)" style="text;strokeColor=none;fillColor=none;align=left;verticalAlign=middle;spacingLeft=4;spacingRight=4;overflow=hidden;points=[[0,0.5],[1,0.5]];portConstraint=eastwest;rotatable=0;whiteSpace=wrap;html=1;" parent="wD4cl0w786RY4ceJdXbx-41" vertex="1">
                    <mxGeometry y="60" width="140" height="30" as="geometry"/>
                </mxCell>
                <mxCell id="wD4cl0w786RY4ceJdXbx-49" value="&lt;h1&gt;problematikker og mulige løsninger&lt;/h1&gt;&lt;div&gt;merge post:&lt;/div&gt;&lt;div&gt;lav middleware der kan henter alle post med lignende tags, tjekke indholdet af to datafelter, eks. description &amp;amp;&amp;amp; tags || flaggedForMerge og tjekke lighederne mellem post'ne&lt;/div&gt;&lt;div&gt;&lt;br&gt;&lt;/div&gt;&lt;div&gt;eks:&amp;nbsp;&lt;/div&gt;&lt;div&gt;&lt;br&gt;&lt;/div&gt;&lt;div style=&quot;&quot;&gt;&lt;pre style=&quot;margin-top: 0px; margin-bottom: 4px; padding: 10px; box-sizing: border-box; border: 1px solid var(--cib-color-stroke-neutral-primary); background: var(--cib-color-syntax-background-surface); border-radius: var(--cib-border-radius-large); color: rgb(17, 17, 17); font-size: 16px;&quot;&gt;&lt;code style=&quot;font-size: var(--cib-type-body1-font-size); line-height: var(--cib-type-body1-line-height); font-weight: var(--cib-type-body1-font-weight); font-variation-settings: var(--cib-type-body1-font-variation-settings);&quot; class=&quot;language-javascript&quot;&gt;function &lt;span style=&quot;color: var(--cib-color-syntax-purple); font-variation-settings: var(--cib-type-subtitle1-font-variation-settings);&quot; class=&quot;hljs-title function_&quot;&gt;sammenlignTekst&lt;/span&gt;(&lt;span style=&quot;font-variation-settings: var(--cib-type-subtitle1-font-variation-settings);&quot; class=&quot;hljs-params&quot;&gt;arg1, arg2&lt;/span&gt;) {&lt;br&gt;  &lt;span style=&quot;color: var(--cib-color-syntax-red); font-variation-settings: var(--cib-type-subtitle1-font-variation-settings);&quot; class=&quot;hljs-keyword&quot;&gt;const&lt;/span&gt; arr1 = arg1.&lt;span style=&quot;color: var(--cib-color-syntax-purple); font-variation-settings: var(--cib-type-subtitle1-font-variation-settings);&quot; class=&quot;hljs-title function_&quot;&gt;split&lt;/span&gt;(&lt;span style=&quot;color: var(--cib-color-syntax-blue-strong); font-variation-settings: var(--cib-type-subtitle1-font-variation-settings);&quot; class=&quot;hljs-string&quot;&gt;' '&lt;/span&gt;);&lt;br&gt;  &lt;span style=&quot;color: var(--cib-color-syntax-red); font-variation-settings: var(--cib-type-subtitle1-font-variation-settings);&quot; class=&quot;hljs-keyword&quot;&gt;const&lt;/span&gt; arr2 = arg2.&lt;span style=&quot;color: var(--cib-color-syntax-purple); font-variation-settings: var(--cib-type-subtitle1-font-variation-settings);&quot; class=&quot;hljs-title function_&quot;&gt;split&lt;/span&gt;(&lt;span style=&quot;color: var(--cib-color-syntax-blue-strong); font-variation-settings: var(--cib-type-subtitle1-font-variation-settings);&quot; class=&quot;hljs-string&quot;&gt;' '&lt;/span&gt;);&lt;/code&gt;&lt;/pre&gt;&lt;pre style=&quot;margin-top: 0px; margin-bottom: 4px; padding: 10px; box-sizing: border-box; border: 1px solid var(--cib-color-stroke-neutral-primary); background: var(--cib-color-syntax-background-surface); border-radius: var(--cib-border-radius-large); color: rgb(17, 17, 17); font-size: 16px;&quot;&gt;&lt;code style=&quot;font-size: var(--cib-type-body1-font-size); line-height: var(--cib-type-body1-line-height); font-weight: var(--cib-type-body1-font-weight); font-variation-settings: var(--cib-type-body1-font-variation-settings);&quot; class=&quot;language-javascript&quot;&gt;  //arg1.split(' ') funktionen opdeler arg1 i mellemrum og indsætter dem i en &lt;/code&gt;array&lt;/pre&gt;&lt;pre style=&quot;margin-top: 0px; margin-bottom: 4px; padding: 10px; box-sizing: border-box; border: 1px solid var(--cib-color-stroke-neutral-primary); background: var(--cib-color-syntax-background-surface); border-radius: var(--cib-border-radius-large); color: rgb(17, 17, 17); font-size: 16px;&quot;&gt;&lt;code style=&quot;font-size: var(--cib-type-body1-font-size); line-height: var(--cib-type-body1-line-height); font-weight: var(--cib-type-body1-font-weight); font-variation-settings: var(--cib-type-body1-font-variation-settings);&quot; class=&quot;language-javascript&quot;&gt;  &lt;span style=&quot;color: var(--cib-color-syntax-red); font-variation-settings: var(--cib-type-subtitle1-font-variation-settings);&quot; class=&quot;hljs-keyword&quot;&gt;let&lt;/span&gt; count = &lt;span style=&quot;color: var(--cib-color-syntax-blue); font-variation-settings: var(--cib-type-subtitle1-font-variation-settings);&quot; class=&quot;hljs-number&quot;&gt;0&lt;/span&gt;;&lt;br&gt;  &lt;span style=&quot;color: var(--cib-color-syntax-red); font-variation-settings: var(--cib-type-subtitle1-font-variation-settings);&quot; class=&quot;hljs-keyword&quot;&gt;for&lt;/span&gt; (&lt;span style=&quot;color: var(--cib-color-syntax-red); font-variation-settings: var(--cib-type-subtitle1-font-variation-settings);&quot; class=&quot;hljs-keyword&quot;&gt;let&lt;/span&gt; i = &lt;span style=&quot;color: var(--cib-color-syntax-blue); font-variation-settings: var(--cib-type-subtitle1-font-variation-settings);&quot; class=&quot;hljs-number&quot;&gt;0&lt;/span&gt;; i &amp;lt; arr1.&lt;span style=&quot;font-variation-settings: var(--cib-type-subtitle1-font-variation-settings);&quot; class=&quot;hljs-property&quot;&gt;length&lt;/span&gt;; i++) {&lt;br&gt;    &lt;span style=&quot;color: var(--cib-color-syntax-red); font-variation-settings: var(--cib-type-subtitle1-font-variation-settings);&quot; class=&quot;hljs-keyword&quot;&gt;if&lt;/span&gt; (arr2.&lt;span style=&quot;color: var(--cib-color-syntax-purple); font-variation-settings: var(--cib-type-subtitle1-font-variation-settings);&quot; class=&quot;hljs-title function_&quot;&gt;includes&lt;/span&gt;(arr1[i])) {&lt;br&gt;      count++;&lt;br&gt;    }&lt;br&gt;  }&lt;br&gt;  &lt;span style=&quot;color: var(--cib-color-syntax-red); font-variation-settings: var(--cib-type-subtitle1-font-variation-settings);&quot; class=&quot;hljs-keyword&quot;&gt;return&lt;/span&gt; count;&lt;br&gt;}&lt;br&gt;&lt;br&gt;&lt;span style=&quot;color: var(--cib-color-syntax-red); font-variation-settings: var(--cib-type-subtitle1-font-variation-settings);&quot; class=&quot;hljs-keyword&quot;&gt;const&lt;/span&gt; foersteTekst = &lt;span style=&quot;color: var(--cib-color-syntax-blue-strong); font-variation-settings: var(--cib-type-subtitle1-font-variation-settings);&quot; class=&quot;hljs-string&quot;&gt;'hej, mit navn er David'&lt;/span&gt;;&lt;br&gt;&lt;span style=&quot;color: var(--cib-color-syntax-red); font-variation-settings: var(--cib-type-subtitle1-font-variation-settings);&quot; class=&quot;hljs-keyword&quot;&gt;const&lt;/span&gt; andenTekst = &lt;span style=&quot;color: var(--cib-color-syntax-blue-strong); font-variation-settings: var(--cib-type-subtitle1-font-variation-settings);&quot; class=&quot;hljs-string&quot;&gt;'David Hej, er mit navn'&lt;/span&gt;;&lt;br&gt;&lt;span style=&quot;color: var(--cib-color-syntax-red); font-variation-settings: var(--cib-type-subtitle1-font-variation-settings);&quot; class=&quot;hljs-keyword&quot;&gt;const&lt;/span&gt; lighed = sammenlignTekst(foersteTekst, andenTekst);&lt;br&gt;&lt;span style=&quot;color: var(--cib-color-syntax-red); font-variation-settings: var(--cib-type-subtitle1-font-variation-settings);&quot; class=&quot;hljs-variable language_&quot;&gt;console&lt;/span&gt;.&lt;span style=&quot;color: var(--cib-color-syntax-purple); font-variation-settings: var(--cib-type-subtitle1-font-variation-settings);&quot; class=&quot;hljs-title function_&quot;&gt;log&lt;/span&gt;(lighed);&lt;/code&gt;&lt;/pre&gt;&lt;pre style=&quot;margin-top: 0px; margin-bottom: 4px; padding: 10px; box-sizing: border-box; border: 1px solid var(--cib-color-stroke-neutral-primary); background: var(--cib-color-syntax-background-surface); border-radius: var(--cib-border-radius-large); color: rgb(17, 17, 17);&quot;&gt;&lt;font style=&quot;font-size: 12px;&quot; face=&quot;Helvetica&quot;&gt;Eksemplet for oven bør gerne returnerer tallet 5 fordi at &quot;count&quot; stiger hvergang et ord er i begge tekster.&lt;/font&gt;&lt;/pre&gt;&lt;pre style=&quot;margin-top: 0px; margin-bottom: 4px; padding: 10px; box-sizing: border-box; border: 1px solid var(--cib-color-stroke-neutral-primary); background: var(--cib-color-syntax-background-surface); border-radius: var(--cib-border-radius-large); color: rgb(17, 17, 17);&quot;&gt;&lt;code style=&quot;font-size: var(--cib-type-body1-font-size); line-height: var(--cib-type-body1-line-height); font-weight: var(--cib-type-body1-font-weight); font-variation-settings: var(--cib-type-body1-font-variation-settings);&quot; class=&quot;language-javascript&quot;&gt;&lt;span style=&quot;color: var(--cib-color-syntax-gray); font-variation-settings: var(--cib-type-subtitle1-font-variation-settings);&quot; class=&quot;hljs-comment&quot;&gt;&lt;font style=&quot;font-size: 12px;&quot; face=&quot;Helvetica&quot;&gt;vi kan jo køre denne algoritme i posts der har samme tag?&lt;/font&gt;&lt;/span&gt;&lt;/code&gt;&lt;/pre&gt;&lt;pre style=&quot;margin-top: 0px; margin-bottom: 4px; padding: 10px; box-sizing: border-box; border: 1px solid var(--cib-color-stroke-neutral-primary); background: var(--cib-color-syntax-background-surface); border-radius: var(--cib-border-radius-large); color: rgb(17, 17, 17); font-size: 16px;&quot;&gt;&lt;code style=&quot;font-size: var(--cib-type-body1-font-size); line-height: var(--cib-type-body1-line-height); font-weight: var(--cib-type-body1-font-weight); font-variation-settings: var(--cib-type-body1-font-variation-settings);&quot; class=&quot;language-javascript&quot;&gt;&lt;span style=&quot;color: var(--cib-color-syntax-gray); font-variation-settings: var(--cib-type-subtitle1-font-variation-settings);&quot; class=&quot;hljs-comment&quot;&gt;&lt;br&gt;&lt;/span&gt;&lt;/code&gt;&lt;/pre&gt;&lt;/div&gt;" style="text;html=1;strokeColor=none;fillColor=none;spacing=5;spacingTop=-20;whiteSpace=wrap;overflow=hidden;rounded=0;" parent="1" vertex="1">
                    <mxGeometry x="1700" y="10" width="760" height="690" as="geometry"/>
                </mxCell>
                <mxCell id="hiYrSH7SHBzh72cXvtfJ-1" value="5 like" style="swimlane;fontStyle=0;childLayout=stackLayout;horizontal=1;startSize=30;horizontalStack=0;resizeParent=1;resizeParentMax=0;resizeLast=0;collapsible=1;marginBottom=0;whiteSpace=wrap;html=1;" parent="1" vertex="1">
                    <mxGeometry x="230" y="490" width="140" height="150" as="geometry"/>
                </mxCell>
                <mxCell id="hiYrSH7SHBzh72cXvtfJ-2" value="&lt;b&gt;&lt;u&gt;likeID (int)&lt;/u&gt;&lt;/b&gt;" style="text;strokeColor=none;fillColor=none;align=left;verticalAlign=middle;spacingLeft=4;spacingRight=4;overflow=hidden;points=[[0,0.5],[1,0.5]];portConstraint=eastwest;rotatable=0;whiteSpace=wrap;html=1;" parent="hiYrSH7SHBzh72cXvtfJ-1" vertex="1">
                    <mxGeometry y="30" width="140" height="30" as="geometry"/>
                </mxCell>
                <mxCell id="hiYrSH7SHBzh72cXvtfJ-3" value="*userID (int)" style="text;strokeColor=none;fillColor=none;align=left;verticalAlign=middle;spacingLeft=4;spacingRight=4;overflow=hidden;points=[[0,0.5],[1,0.5]];portConstraint=eastwest;rotatable=0;whiteSpace=wrap;html=1;" parent="hiYrSH7SHBzh72cXvtfJ-1" vertex="1">
                    <mxGeometry y="60" width="140" height="30" as="geometry"/>
                </mxCell>
                <mxCell id="hiYrSH7SHBzh72cXvtfJ-4" value="liked (bool)" style="text;strokeColor=none;fillColor=none;align=left;verticalAlign=middle;spacingLeft=4;spacingRight=4;overflow=hidden;points=[[0,0.5],[1,0.5]];portConstraint=eastwest;rotatable=0;whiteSpace=wrap;html=1;" parent="hiYrSH7SHBzh72cXvtfJ-1" vertex="1">
                    <mxGeometry y="90" width="140" height="30" as="geometry"/>
                </mxCell>
                <mxCell id="3" value="likeAmount&amp;nbsp; (int)" style="text;strokeColor=none;fillColor=none;align=left;verticalAlign=middle;spacingLeft=4;spacingRight=4;overflow=hidden;points=[[0,0.5],[1,0.5]];portConstraint=eastwest;rotatable=0;whiteSpace=wrap;html=1;" vertex="1" parent="hiYrSH7SHBzh72cXvtfJ-1">
                    <mxGeometry y="120" width="140" height="30" as="geometry"/>
                </mxCell>
                <mxCell id="hiYrSH7SHBzh72cXvtfJ-7" value="&lt;h1&gt;tallet i tabelnavnet&lt;/h1&gt;&lt;p&gt;I sequelize kan vi ikke oprette tabeller med foreign keys før end at primary keys er definerert&lt;/p&gt;&lt;p&gt;derfor er der angivet tal i tabelnavnene der angiver hvilken rækkefølge tabellerne skal oprettes&lt;/p&gt;" style="text;html=1;strokeColor=none;fillColor=none;spacing=5;spacingTop=-20;whiteSpace=wrap;overflow=hidden;rounded=0;" parent="1" vertex="1">
                    <mxGeometry y="939" width="190" height="230" as="geometry"/>
                </mxCell>
                <mxCell id="hiYrSH7SHBzh72cXvtfJ-9" value="9 flagged for merge" style="swimlane;fontStyle=0;childLayout=stackLayout;horizontal=1;startSize=30;horizontalStack=0;resizeParent=1;resizeParentMax=0;resizeLast=0;collapsible=1;marginBottom=0;whiteSpace=wrap;html=1;fillColor=#f8cecc;strokeColor=#b85450;" parent="1" vertex="1">
                    <mxGeometry x="660" y="460" width="140" height="90" as="geometry"/>
                </mxCell>
                <mxCell id="hiYrSH7SHBzh72cXvtfJ-10" value="&lt;b&gt;&lt;u&gt;flagID (int)&lt;/u&gt;&lt;/b&gt;" style="text;strokeColor=none;fillColor=none;align=left;verticalAlign=middle;spacingLeft=4;spacingRight=4;overflow=hidden;points=[[0,0.5],[1,0.5]];portConstraint=eastwest;rotatable=0;whiteSpace=wrap;html=1;" parent="hiYrSH7SHBzh72cXvtfJ-9" vertex="1">
                    <mxGeometry y="30" width="140" height="30" as="geometry"/>
                </mxCell>
                <mxCell id="hiYrSH7SHBzh72cXvtfJ-11" value="flagged (bool)" style="text;strokeColor=none;fillColor=none;align=left;verticalAlign=middle;spacingLeft=4;spacingRight=4;overflow=hidden;points=[[0,0.5],[1,0.5]];portConstraint=eastwest;rotatable=0;whiteSpace=wrap;html=1;" parent="hiYrSH7SHBzh72cXvtfJ-9" vertex="1">
                    <mxGeometry y="60" width="140" height="30" as="geometry"/>
                </mxCell>
                <mxCell id="3A3omUd8nX7yIEy-ywaj-3" style="edgeStyle=orthogonalEdgeStyle;rounded=0;orthogonalLoop=1;jettySize=auto;html=1;exitX=1;exitY=0.5;exitDx=0;exitDy=0;entryX=0;entryY=0.5;entryDx=0;entryDy=0;endArrow=ERoneToMany;endFill=0;startArrow=ERone;startFill=0;" parent="1" source="wD4cl0w786RY4ceJdXbx-3" target="wD4cl0w786RY4ceJdXbx-16" edge="1">
                    <mxGeometry relative="1" as="geometry"/>
                </mxCell>
                <mxCell id="3A3omUd8nX7yIEy-ywaj-5" style="edgeStyle=orthogonalEdgeStyle;rounded=0;orthogonalLoop=1;jettySize=auto;html=1;exitX=1;exitY=0.5;exitDx=0;exitDy=0;entryX=0;entryY=0.5;entryDx=0;entryDy=0;endArrow=ERone;endFill=0;startArrow=ERzeroToMany;startFill=0;" parent="1" source="hiYrSH7SHBzh72cXvtfJ-2" target="wD4cl0w786RY4ceJdXbx-18" edge="1">
                    <mxGeometry relative="1" as="geometry">
                        <Array as="points">
                            <mxPoint x="390" y="535"/>
                            <mxPoint x="390" y="225"/>
                        </Array>
                    </mxGeometry>
                </mxCell>
                <mxCell id="3A3omUd8nX7yIEy-ywaj-6" style="edgeStyle=orthogonalEdgeStyle;rounded=0;orthogonalLoop=1;jettySize=auto;html=1;exitX=1;exitY=0.5;exitDx=0;exitDy=0;entryX=0;entryY=0.5;entryDx=0;entryDy=0;endArrow=ERone;endFill=0;startArrow=ERone;startFill=0;" parent="1" source="wD4cl0w786RY4ceJdXbx-42" target="wD4cl0w786RY4ceJdXbx-20" edge="1">
                    <mxGeometry relative="1" as="geometry">
                        <Array as="points">
                            <mxPoint x="410" y="685"/>
                            <mxPoint x="410" y="255"/>
                        </Array>
                    </mxGeometry>
                </mxCell>
                <mxCell id="3A3omUd8nX7yIEy-ywaj-8" style="edgeStyle=orthogonalEdgeStyle;rounded=0;orthogonalLoop=1;jettySize=auto;html=1;exitX=1;exitY=0.5;exitDx=0;exitDy=0;entryX=0;entryY=0.5;entryDx=0;entryDy=0;startArrow=ERone;startFill=0;endArrow=ERoneToMany;endFill=0;" parent="1" source="wD4cl0w786RY4ceJdXbx-3" target="wD4cl0w786RY4ceJdXbx-26" edge="1">
                    <mxGeometry relative="1" as="geometry">
                        <Array as="points">
                            <mxPoint x="400" y="135"/>
                            <mxPoint x="400" y="20"/>
                            <mxPoint x="620" y="20"/>
                            <mxPoint x="620" y="95"/>
                        </Array>
                    </mxGeometry>
                </mxCell>
                <mxCell id="3A3omUd8nX7yIEy-ywaj-10" style="edgeStyle=orthogonalEdgeStyle;rounded=0;orthogonalLoop=1;jettySize=auto;html=1;exitX=1;exitY=0.5;exitDx=0;exitDy=0;entryX=0;entryY=0.5;entryDx=0;entryDy=0;startArrow=ERone;startFill=0;endArrow=ERone;endFill=0;" parent="1" source="wD4cl0w786RY4ceJdXbx-16" target="wD4cl0w786RY4ceJdXbx-38" edge="1">
                    <mxGeometry relative="1" as="geometry">
                        <Array as="points">
                            <mxPoint x="600" y="165"/>
                            <mxPoint x="600" y="295"/>
                        </Array>
                    </mxGeometry>
                </mxCell>
                <mxCell id="3A3omUd8nX7yIEy-ywaj-11" style="edgeStyle=orthogonalEdgeStyle;rounded=0;orthogonalLoop=1;jettySize=auto;html=1;exitX=1.004;exitY=0.169;exitDx=0;exitDy=0;entryX=0;entryY=0.5;entryDx=0;entryDy=0;endArrow=ERoneToMany;endFill=0;startArrow=ERone;startFill=0;exitPerimeter=0;" parent="1" source="wD4cl0w786RY4ceJdXbx-15" target="wD4cl0w786RY4ceJdXbx-27" edge="1">
                    <mxGeometry relative="1" as="geometry"/>
                </mxCell>
                <mxCell id="3A3omUd8nX7yIEy-ywaj-12" style="edgeStyle=orthogonalEdgeStyle;rounded=0;orthogonalLoop=1;jettySize=auto;html=1;exitX=1;exitY=0.5;exitDx=0;exitDy=0;entryX=0;entryY=0.5;entryDx=0;entryDy=0;startArrow=ERone;startFill=0;endArrow=ERone;endFill=0;" parent="1" source="wD4cl0w786RY4ceJdXbx-3" target="hiYrSH7SHBzh72cXvtfJ-3" edge="1">
                    <mxGeometry relative="1" as="geometry">
                        <Array as="points">
                            <mxPoint x="390" y="135"/>
                            <mxPoint x="390" y="30"/>
                            <mxPoint x="20" y="30"/>
                            <mxPoint x="20" y="565"/>
                        </Array>
                    </mxGeometry>
                </mxCell>
                <mxCell id="3A3omUd8nX7yIEy-ywaj-13" style="edgeStyle=orthogonalEdgeStyle;rounded=0;orthogonalLoop=1;jettySize=auto;html=1;exitX=1;exitY=0.5;exitDx=0;exitDy=0;entryX=0;entryY=0.5;entryDx=0;entryDy=0;startArrow=ERmany;startFill=0;endArrow=ERone;endFill=0;" parent="1" source="wD4cl0w786RY4ceJdXbx-15" target="wD4cl0w786RY4ceJdXbx-39" edge="1">
                    <mxGeometry relative="1" as="geometry"/>
                </mxCell>
                <mxCell id="3A3omUd8nX7yIEy-ywaj-69" value="&amp;nbsp;1 User" style="swimlane;fontStyle=0;childLayout=stackLayout;horizontal=1;startSize=30;horizontalStack=0;resizeParent=1;resizeParentMax=0;resizeLast=0;collapsible=1;marginBottom=0;whiteSpace=wrap;html=1;" parent="1" vertex="1">
                    <mxGeometry x="900" y="80" width="140" height="240" as="geometry"/>
                </mxCell>
                <mxCell id="3A3omUd8nX7yIEy-ywaj-70" value="&lt;b&gt;&lt;u&gt;userID (int)&amp;nbsp;&lt;/u&gt;&lt;/b&gt;" style="text;strokeColor=none;fillColor=none;align=left;verticalAlign=middle;spacingLeft=4;spacingRight=4;overflow=hidden;points=[[0,0.5],[1,0.5]];portConstraint=eastwest;rotatable=0;whiteSpace=wrap;html=1;" parent="3A3omUd8nX7yIEy-ywaj-69" vertex="1">
                    <mxGeometry y="30" width="140" height="30" as="geometry"/>
                </mxCell>
                <mxCell id="3A3omUd8nX7yIEy-ywaj-80" value="role (ENUM)" style="text;strokeColor=none;fillColor=none;align=left;verticalAlign=middle;spacingLeft=4;spacingRight=4;overflow=hidden;points=[[0,0.5],[1,0.5]];portConstraint=eastwest;rotatable=0;whiteSpace=wrap;html=1;" parent="3A3omUd8nX7yIEy-ywaj-69" vertex="1">
                    <mxGeometry y="60" width="140" height="30" as="geometry"/>
                </mxCell>
                <mxCell id="3A3omUd8nX7yIEy-ywaj-72" value="firstName (varchar 255)" style="text;strokeColor=none;fillColor=none;align=left;verticalAlign=middle;spacingLeft=4;spacingRight=4;overflow=hidden;points=[[0,0.5],[1,0.5]];portConstraint=eastwest;rotatable=0;whiteSpace=wrap;html=1;" parent="3A3omUd8nX7yIEy-ywaj-69" vertex="1">
                    <mxGeometry y="90" width="140" height="30" as="geometry"/>
                </mxCell>
                <mxCell id="3A3omUd8nX7yIEy-ywaj-73" value="lastName (varchar 255)" style="text;strokeColor=none;fillColor=none;align=left;verticalAlign=middle;spacingLeft=4;spacingRight=4;overflow=hidden;points=[[0,0.5],[1,0.5]];portConstraint=eastwest;rotatable=0;whiteSpace=wrap;html=1;" parent="3A3omUd8nX7yIEy-ywaj-69" vertex="1">
                    <mxGeometry y="120" width="140" height="30" as="geometry"/>
                </mxCell>
                <mxCell id="3A3omUd8nX7yIEy-ywaj-74" value="email (varchar 255)" style="text;strokeColor=none;fillColor=none;align=left;verticalAlign=middle;spacingLeft=4;spacingRight=4;overflow=hidden;points=[[0,0.5],[1,0.5]];portConstraint=eastwest;rotatable=0;whiteSpace=wrap;html=1;" parent="3A3omUd8nX7yIEy-ywaj-69" vertex="1">
                    <mxGeometry y="150" width="140" height="30" as="geometry"/>
                </mxCell>
                <mxCell id="3A3omUd8nX7yIEy-ywaj-75" value="password (varchar 255)" style="text;strokeColor=none;fillColor=none;align=left;verticalAlign=middle;spacingLeft=4;spacingRight=4;overflow=hidden;points=[[0,0.5],[1,0.5]];portConstraint=eastwest;rotatable=0;whiteSpace=wrap;html=1;" parent="3A3omUd8nX7yIEy-ywaj-69" vertex="1">
                    <mxGeometry y="180" width="140" height="30" as="geometry"/>
                </mxCell>
                <mxCell id="3A3omUd8nX7yIEy-ywaj-126" value="&lt;u&gt;&lt;b&gt;liked (bool)&lt;/b&gt;&lt;/u&gt;" style="text;strokeColor=none;fillColor=none;align=left;verticalAlign=middle;spacingLeft=4;spacingRight=4;overflow=hidden;points=[[0,0.5],[1,0.5]];portConstraint=eastwest;rotatable=0;whiteSpace=wrap;html=1;" parent="3A3omUd8nX7yIEy-ywaj-69" vertex="1">
                    <mxGeometry y="210" width="140" height="30" as="geometry"/>
                </mxCell>
                <mxCell id="3A3omUd8nX7yIEy-ywaj-81" value="3 post" style="swimlane;fontStyle=0;childLayout=stackLayout;horizontal=1;startSize=30;horizontalStack=0;resizeParent=1;resizeParentMax=0;resizeLast=0;collapsible=1;marginBottom=0;whiteSpace=wrap;html=1;" parent="1" vertex="1">
                    <mxGeometry x="1241" y="300" width="140" height="300" as="geometry"/>
                </mxCell>
                <mxCell id="3A3omUd8nX7yIEy-ywaj-82" value="&lt;u&gt;&lt;b&gt;postID (int)&lt;/b&gt;&lt;/u&gt;" style="text;strokeColor=none;fillColor=none;align=left;verticalAlign=middle;spacingLeft=4;spacingRight=4;overflow=hidden;points=[[0,0.5],[1,0.5]];portConstraint=eastwest;rotatable=0;whiteSpace=wrap;html=1;" parent="3A3omUd8nX7yIEy-ywaj-81" vertex="1">
                    <mxGeometry y="30" width="140" height="30" as="geometry"/>
                </mxCell>
                <mxCell id="3A3omUd8nX7yIEy-ywaj-83" value="* userID (int)" style="text;strokeColor=none;fillColor=none;align=left;verticalAlign=middle;spacingLeft=4;spacingRight=4;overflow=hidden;points=[[0,0.5],[1,0.5]];portConstraint=eastwest;rotatable=0;whiteSpace=wrap;html=1;" parent="3A3omUd8nX7yIEy-ywaj-81" vertex="1">
                    <mxGeometry y="60" width="140" height="30" as="geometry"/>
                </mxCell>
                <mxCell id="3A3omUd8nX7yIEy-ywaj-85" value="* likeID (int)" style="text;strokeColor=none;fillColor=none;align=left;verticalAlign=middle;spacingLeft=4;spacingRight=4;overflow=hidden;points=[[0,0.5],[1,0.5]];portConstraint=eastwest;rotatable=0;whiteSpace=wrap;html=1;" parent="3A3omUd8nX7yIEy-ywaj-81" vertex="1">
                    <mxGeometry y="90" width="140" height="30" as="geometry"/>
                </mxCell>
                <mxCell id="3A3omUd8nX7yIEy-ywaj-100" value="category (ENUM)" style="text;strokeColor=none;fillColor=none;align=left;verticalAlign=middle;spacingLeft=4;spacingRight=4;overflow=hidden;points=[[0,0.5],[1,0.5]];portConstraint=eastwest;rotatable=0;whiteSpace=wrap;html=1;" parent="3A3omUd8nX7yIEy-ywaj-81" vertex="1">
                    <mxGeometry y="120" width="140" height="30" as="geometry"/>
                </mxCell>
                <mxCell id="3A3omUd8nX7yIEy-ywaj-88" value="title (varchar 255)" style="text;strokeColor=none;fillColor=none;align=left;verticalAlign=middle;spacingLeft=4;spacingRight=4;overflow=hidden;points=[[0,0.5],[1,0.5]];portConstraint=eastwest;rotatable=0;whiteSpace=wrap;html=1;" parent="3A3omUd8nX7yIEy-ywaj-81" vertex="1">
                    <mxGeometry y="150" width="140" height="30" as="geometry"/>
                </mxCell>
                <mxCell id="3A3omUd8nX7yIEy-ywaj-109" value="status(ENUM)" style="text;strokeColor=none;fillColor=none;align=left;verticalAlign=middle;spacingLeft=4;spacingRight=4;overflow=hidden;points=[[0,0.5],[1,0.5]];portConstraint=eastwest;rotatable=0;whiteSpace=wrap;html=1;" parent="3A3omUd8nX7yIEy-ywaj-81" vertex="1">
                    <mxGeometry y="180" width="140" height="30" as="geometry"/>
                </mxCell>
                <mxCell id="3A3omUd8nX7yIEy-ywaj-89" value="description (varchar 2000)" style="text;strokeColor=none;fillColor=none;align=left;verticalAlign=middle;spacingLeft=4;spacingRight=4;overflow=hidden;points=[[0,0.5],[1,0.5]];portConstraint=eastwest;rotatable=0;whiteSpace=wrap;html=1;" parent="3A3omUd8nX7yIEy-ywaj-81" vertex="1">
                    <mxGeometry y="210" width="140" height="30" as="geometry"/>
                </mxCell>
                <mxCell id="3A3omUd8nX7yIEy-ywaj-87" value="tag (varchar 20)" style="text;strokeColor=none;fillColor=none;align=left;verticalAlign=middle;spacingLeft=4;spacingRight=4;overflow=hidden;points=[[0,0.5],[1,0.5]];portConstraint=eastwest;rotatable=0;whiteSpace=wrap;html=1;" parent="3A3omUd8nX7yIEy-ywaj-81" vertex="1">
                    <mxGeometry y="240" width="140" height="30" as="geometry"/>
                </mxCell>
                <mxCell id="3A3omUd8nX7yIEy-ywaj-90" value="image (BLOB)" style="text;strokeColor=none;fillColor=none;align=left;verticalAlign=middle;spacingLeft=4;spacingRight=4;overflow=hidden;points=[[0,0.5],[1,0.5]];portConstraint=eastwest;rotatable=0;whiteSpace=wrap;html=1;" parent="3A3omUd8nX7yIEy-ywaj-81" vertex="1">
                    <mxGeometry y="270" width="140" height="30" as="geometry"/>
                </mxCell>
                <mxCell id="3A3omUd8nX7yIEy-ywaj-92" value="5 comment" style="swimlane;fontStyle=0;childLayout=stackLayout;horizontal=1;startSize=30;horizontalStack=0;resizeParent=1;resizeParentMax=0;resizeLast=0;collapsible=1;marginBottom=0;whiteSpace=wrap;html=1;" parent="1" vertex="1">
                    <mxGeometry x="1241" y="135" width="140" height="150" as="geometry"/>
                </mxCell>
                <mxCell id="3A3omUd8nX7yIEy-ywaj-93" value="&lt;b&gt;&lt;u&gt;commentID (int)&lt;/u&gt;&lt;/b&gt;" style="text;strokeColor=none;fillColor=none;align=left;verticalAlign=middle;spacingLeft=4;spacingRight=4;overflow=hidden;points=[[0,0.5],[1,0.5]];portConstraint=eastwest;rotatable=0;whiteSpace=wrap;html=1;" parent="3A3omUd8nX7yIEy-ywaj-92" vertex="1">
                    <mxGeometry y="30" width="140" height="30" as="geometry"/>
                </mxCell>
                <mxCell id="3A3omUd8nX7yIEy-ywaj-94" value="* userID (int)" style="text;strokeColor=none;fillColor=none;align=left;verticalAlign=middle;spacingLeft=4;spacingRight=4;overflow=hidden;points=[[0,0.5],[1,0.5]];portConstraint=eastwest;rotatable=0;whiteSpace=wrap;html=1;" parent="3A3omUd8nX7yIEy-ywaj-92" vertex="1">
                    <mxGeometry y="60" width="140" height="30" as="geometry"/>
                </mxCell>
                <mxCell id="3A3omUd8nX7yIEy-ywaj-95" value="* postID (int)" style="text;strokeColor=none;fillColor=none;align=left;verticalAlign=middle;spacingLeft=4;spacingRight=4;overflow=hidden;points=[[0,0.5],[1,0.5]];portConstraint=eastwest;rotatable=0;whiteSpace=wrap;html=1;" parent="3A3omUd8nX7yIEy-ywaj-92" vertex="1">
                    <mxGeometry y="90" width="140" height="30" as="geometry"/>
                </mxCell>
                <mxCell id="3A3omUd8nX7yIEy-ywaj-96" value="description (varchar 2000)" style="text;strokeColor=none;fillColor=none;align=left;verticalAlign=middle;spacingLeft=4;spacingRight=4;overflow=hidden;points=[[0,0.5],[1,0.5]];portConstraint=eastwest;rotatable=0;whiteSpace=wrap;html=1;" parent="3A3omUd8nX7yIEy-ywaj-92" vertex="1">
                    <mxGeometry y="120" width="140" height="30" as="geometry"/>
                </mxCell>
                <mxCell id="3A3omUd8nX7yIEy-ywaj-101" value="4 notification" style="swimlane;fontStyle=0;childLayout=stackLayout;horizontal=1;startSize=30;horizontalStack=0;resizeParent=1;resizeParentMax=0;resizeLast=0;collapsible=1;marginBottom=0;whiteSpace=wrap;html=1;" parent="1" vertex="1">
                    <mxGeometry x="1480" y="105" width="140" height="180" as="geometry"/>
                </mxCell>
                <mxCell id="3A3omUd8nX7yIEy-ywaj-102" value="&lt;b&gt;&lt;u&gt;notificatioID (int)&lt;/u&gt;&lt;/b&gt;" style="text;strokeColor=none;fillColor=none;align=left;verticalAlign=middle;spacingLeft=4;spacingRight=4;overflow=hidden;points=[[0,0.5],[1,0.5]];portConstraint=eastwest;rotatable=0;whiteSpace=wrap;html=1;" parent="3A3omUd8nX7yIEy-ywaj-101" vertex="1">
                    <mxGeometry y="30" width="140" height="30" as="geometry"/>
                </mxCell>
                <mxCell id="3A3omUd8nX7yIEy-ywaj-104" value="* userID (int)" style="text;strokeColor=none;fillColor=none;align=left;verticalAlign=middle;spacingLeft=4;spacingRight=4;overflow=hidden;points=[[0,0.5],[1,0.5]];portConstraint=eastwest;rotatable=0;whiteSpace=wrap;html=1;" parent="3A3omUd8nX7yIEy-ywaj-101" vertex="1">
                    <mxGeometry y="60" width="140" height="30" as="geometry"/>
                </mxCell>
                <mxCell id="3A3omUd8nX7yIEy-ywaj-103" value="* postID (int)" style="text;strokeColor=none;fillColor=none;align=left;verticalAlign=middle;spacingLeft=4;spacingRight=4;overflow=hidden;points=[[0,0.5],[1,0.5]];portConstraint=eastwest;rotatable=0;whiteSpace=wrap;html=1;" parent="3A3omUd8nX7yIEy-ywaj-101" vertex="1">
                    <mxGeometry y="90" width="140" height="30" as="geometry"/>
                </mxCell>
                <mxCell id="3A3omUd8nX7yIEy-ywaj-105" value="notificationType (ENUM)" style="text;strokeColor=none;fillColor=none;align=left;verticalAlign=middle;spacingLeft=4;spacingRight=4;overflow=hidden;points=[[0,0.5],[1,0.5]];portConstraint=eastwest;rotatable=0;whiteSpace=wrap;html=1;" parent="3A3omUd8nX7yIEy-ywaj-101" vertex="1">
                    <mxGeometry y="120" width="140" height="30" as="geometry"/>
                </mxCell>
                <mxCell id="3A3omUd8nX7yIEy-ywaj-106" value="description (varchar 2000)" style="text;strokeColor=none;fillColor=none;align=left;verticalAlign=middle;spacingLeft=4;spacingRight=4;overflow=hidden;points=[[0,0.5],[1,0.5]];portConstraint=eastwest;rotatable=0;whiteSpace=wrap;html=1;" parent="3A3omUd8nX7yIEy-ywaj-101" vertex="1">
                    <mxGeometry y="150" width="140" height="30" as="geometry"/>
                </mxCell>
                <mxCell id="3A3omUd8nX7yIEy-ywaj-110" value="2 like" style="swimlane;fontStyle=0;childLayout=stackLayout;horizontal=1;startSize=30;horizontalStack=0;resizeParent=1;resizeParentMax=0;resizeLast=0;collapsible=1;marginBottom=0;whiteSpace=wrap;html=1;" parent="1" vertex="1">
                    <mxGeometry x="900" y="360" width="140" height="120" as="geometry"/>
                </mxCell>
                <mxCell id="3A3omUd8nX7yIEy-ywaj-111" value="&lt;b&gt;&lt;u&gt;likeID (int)&lt;/u&gt;&lt;/b&gt;" style="text;strokeColor=none;fillColor=none;align=left;verticalAlign=middle;spacingLeft=4;spacingRight=4;overflow=hidden;points=[[0,0.5],[1,0.5]];portConstraint=eastwest;rotatable=0;whiteSpace=wrap;html=1;" parent="3A3omUd8nX7yIEy-ywaj-110" vertex="1">
                    <mxGeometry y="30" width="140" height="30" as="geometry"/>
                </mxCell>
                <mxCell id="3A3omUd8nX7yIEy-ywaj-112" value="*userID (int)" style="text;strokeColor=none;fillColor=none;align=left;verticalAlign=middle;spacingLeft=4;spacingRight=4;overflow=hidden;points=[[0,0.5],[1,0.5]];portConstraint=eastwest;rotatable=0;whiteSpace=wrap;html=1;" parent="3A3omUd8nX7yIEy-ywaj-110" vertex="1">
                    <mxGeometry y="60" width="140" height="30" as="geometry"/>
                </mxCell>
                <mxCell id="3A3omUd8nX7yIEy-ywaj-113" value="*liked (bool)" style="text;strokeColor=none;fillColor=none;align=left;verticalAlign=middle;spacingLeft=4;spacingRight=4;overflow=hidden;points=[[0,0.5],[1,0.5]];portConstraint=eastwest;rotatable=0;whiteSpace=wrap;html=1;" parent="3A3omUd8nX7yIEy-ywaj-110" vertex="1">
                    <mxGeometry y="90" width="140" height="30" as="geometry"/>
                </mxCell>
                <mxCell id="3A3omUd8nX7yIEy-ywaj-117" style="edgeStyle=orthogonalEdgeStyle;rounded=0;orthogonalLoop=1;jettySize=auto;html=1;exitX=1;exitY=0.5;exitDx=0;exitDy=0;entryX=0;entryY=0.5;entryDx=0;entryDy=0;endArrow=ERoneToMany;endFill=0;startArrow=ERone;startFill=0;" parent="1" source="3A3omUd8nX7yIEy-ywaj-70" target="3A3omUd8nX7yIEy-ywaj-83" edge="1">
                    <mxGeometry relative="1" as="geometry">
                        <Array as="points">
                            <mxPoint x="1160" y="125"/>
                            <mxPoint x="1160" y="375"/>
                        </Array>
                    </mxGeometry>
                </mxCell>
                <mxCell id="3A3omUd8nX7yIEy-ywaj-118" style="edgeStyle=orthogonalEdgeStyle;rounded=0;orthogonalLoop=1;jettySize=auto;html=1;exitX=1;exitY=0.5;exitDx=0;exitDy=0;entryX=0;entryY=0.5;entryDx=0;entryDy=0;endArrow=ERone;endFill=0;startArrow=ERzeroToMany;startFill=0;" parent="1" source="3A3omUd8nX7yIEy-ywaj-111" target="3A3omUd8nX7yIEy-ywaj-85" edge="1">
                    <mxGeometry relative="1" as="geometry"/>
                </mxCell>
                <mxCell id="3A3omUd8nX7yIEy-ywaj-120" style="edgeStyle=orthogonalEdgeStyle;rounded=0;orthogonalLoop=1;jettySize=auto;html=1;exitX=1;exitY=0.5;exitDx=0;exitDy=0;entryX=0;entryY=0.5;entryDx=0;entryDy=0;startArrow=ERone;startFill=0;endArrow=ERoneToMany;endFill=0;" parent="1" source="3A3omUd8nX7yIEy-ywaj-70" target="3A3omUd8nX7yIEy-ywaj-94" edge="1">
                    <mxGeometry relative="1" as="geometry">
                        <Array as="points">
                            <mxPoint x="1200" y="125"/>
                            <mxPoint x="1200" y="210"/>
                        </Array>
                    </mxGeometry>
                </mxCell>
                <mxCell id="3A3omUd8nX7yIEy-ywaj-121" style="edgeStyle=orthogonalEdgeStyle;rounded=0;orthogonalLoop=1;jettySize=auto;html=1;exitX=1;exitY=0.5;exitDx=0;exitDy=0;entryX=0;entryY=0.5;entryDx=0;entryDy=0;startArrow=ERone;startFill=0;endArrow=ERone;endFill=0;" parent="1" source="3A3omUd8nX7yIEy-ywaj-70" target="3A3omUd8nX7yIEy-ywaj-104" edge="1">
                    <mxGeometry relative="1" as="geometry">
                        <Array as="points">
                            <mxPoint x="1200" y="125"/>
                            <mxPoint x="1200" y="90"/>
                            <mxPoint x="1430" y="90"/>
                            <mxPoint x="1430" y="180"/>
                        </Array>
                    </mxGeometry>
                </mxCell>
                <mxCell id="3A3omUd8nX7yIEy-ywaj-122" style="edgeStyle=orthogonalEdgeStyle;rounded=0;orthogonalLoop=1;jettySize=auto;html=1;exitX=0;exitY=0.5;exitDx=0;exitDy=0;entryX=0;entryY=0.5;entryDx=0;entryDy=0;endArrow=ERoneToMany;endFill=0;startArrow=ERone;startFill=0;" parent="1" source="3A3omUd8nX7yIEy-ywaj-82" target="3A3omUd8nX7yIEy-ywaj-95" edge="1">
                    <mxGeometry relative="1" as="geometry">
                        <Array as="points">
                            <mxPoint x="1200" y="345"/>
                            <mxPoint x="1200" y="240"/>
                        </Array>
                    </mxGeometry>
                </mxCell>
                <mxCell id="3A3omUd8nX7yIEy-ywaj-123" style="edgeStyle=orthogonalEdgeStyle;rounded=0;orthogonalLoop=1;jettySize=auto;html=1;exitX=0;exitY=0.5;exitDx=0;exitDy=0;entryX=0;entryY=0.5;entryDx=0;entryDy=0;startArrow=ERone;startFill=0;endArrow=ERone;endFill=0;" parent="1" source="3A3omUd8nX7yIEy-ywaj-70" edge="1">
                    <mxGeometry relative="1" as="geometry">
                        <Array as="points">
                            <mxPoint x="850" y="125"/>
                            <mxPoint x="850" y="435"/>
                        </Array>
                    </mxGeometry>
                </mxCell>
                <mxCell id="3A3omUd8nX7yIEy-ywaj-124" style="edgeStyle=orthogonalEdgeStyle;rounded=0;orthogonalLoop=1;jettySize=auto;html=1;exitX=1;exitY=0.5;exitDx=0;exitDy=0;entryX=0;entryY=0.5;entryDx=0;entryDy=0;startArrow=ERmany;startFill=0;endArrow=ERone;endFill=0;" parent="1" source="3A3omUd8nX7yIEy-ywaj-82" target="3A3omUd8nX7yIEy-ywaj-103" edge="1">
                    <mxGeometry relative="1" as="geometry"/>
                </mxCell>
                <mxCell id="3A3omUd8nX7yIEy-ywaj-125" value="&lt;h1&gt;SQL Views&lt;/h1&gt;&lt;p&gt;opret views hvis der er data vi ikke ønsker at hente&lt;/p&gt;&lt;p&gt;Dokumentation:&amp;nbsp;https://www.w3schools.com/sql/sql_view.asp&lt;/p&gt;" style="text;html=1;strokeColor=none;fillColor=none;spacing=5;spacingTop=-20;whiteSpace=wrap;overflow=hidden;rounded=0;" parent="1" vertex="1">
                    <mxGeometry x="920" y="640" width="370" height="120" as="geometry"/>
                </mxCell>
                <mxCell id="2" style="edgeStyle=orthogonalEdgeStyle;html=1;entryX=0;entryY=0.5;entryDx=0;entryDy=0;startArrow=ERone;startFill=0;endArrow=ERone;endFill=0;" edge="1" parent="1" source="3A3omUd8nX7yIEy-ywaj-126" target="3A3omUd8nX7yIEy-ywaj-113">
                    <mxGeometry relative="1" as="geometry">
                        <mxPoint x="870" y="300" as="targetPoint"/>
                    </mxGeometry>
                </mxCell>
            </root>
        </mxGraphModel>
    </diagram>
</mxfile>